<svg width="24" height="24" viewBox="0 0 24 24" fill="none" xmlns="http://www.w3.org/2000/svg">
<path d="M22 12.1201L19.4 15.0001C18.4627 16.0313 17.3203 16.8552 16.0459 17.419C14.7716 17.9828 13.3935 18.2741 12 18.2741C10.6065 18.2741 9.2284 17.9828 7.95406 17.419C6.67971 16.8552 5.53727 16.0313 4.6 15.0001L2 12.1201L4.32 9.34013C5.2585 8.21472 6.43287 7.30932 7.76001 6.688C9.08715 6.06668 10.5346 5.74463 12 5.74463C13.4654 5.74463 14.9128 6.06668 16.24 6.688C17.5671 7.30932 18.7415 8.21472 19.68 9.34013L22 12.1201Z" stroke="black" stroke-width="1.5" stroke-linecap="round" stroke-linejoin="round"/>
<path d="M12.0902 14.2603C13.5262 14.2603 14.6902 13.141 14.6902 11.7603C14.6902 10.3795 13.5262 9.26025 12.0902 9.26025C10.6543 9.26025 9.49023 10.3795 9.49023 11.7603C9.49023 13.141 10.6543 14.2603 12.0902 14.2603Z" stroke="black" stroke-width="1.5" stroke-linecap="round" stroke-linejoin="bevel"/>
</svg>
